<?xml version="1.0" encoding="UTF-8"?>
<svg width="176px" height="55px" viewBox="0 0 176 55" version="1.1" xmlns="http://www.w3.org/2000/svg" xmlns:xlink="http://www.w3.org/1999/xlink">
    <!-- Generator: Sketch 64 (93537) - https://sketch.com -->
    <title>logo/color</title>
    <desc>Created with Sketch.</desc>
    <g id="logo/color" stroke="none" stroke-width="1" fill="none" fill-rule="evenodd">
        <g id="Group-3">
            <path d="M101.675036,9 C104.140315,9 106.138818,6.98528137 106.138818,4.5 C106.138818,2.01471863 104.140315,1.11947488e-14 101.675036,1.11947488e-14 C99.2097576,1.11947488e-14 97.2112543,2.01471863 97.2112543,4.5 C97.2112543,6.98528137 99.2097576,9 101.675036,9 Z" id="Shape" fill="#EC7041"></path>
            <path d="M131.380057,15.8596323 C129.043741,13.2606281 125.746725,12 121.530776,12 L121.494575,12 C117.509752,12 114.254505,13.3383761 111.79845,16.0123516 C109.342395,18.6863271 108.122722,22.1627729 108.122722,26.4055917 C108.122722,30.7983531 109.308979,34.3525469 111.645295,36.9876484 C113.98161,39.6227499 117.278627,40.961126 121.494575,41 L121.530776,41 C125.671539,41 128.926786,39.6616239 131.302087,37.0265224 C133.677387,34.3914209 134.905414,30.8733244 134.905414,26.4055917 C134.905414,21.9378591 133.716372,18.4197625 131.380057,15.8596323 Z M126.242189,32.6528142 C125.152932,34.1757602 123.38882,35.0538434 121.531725,34.9974386 L121.49641,34.9974386 C117.196143,34.9974386 115.066383,31.9738901 115.066383,25.9267931 C115.066383,23.1286364 115.628704,20.9351894 116.823978,19.3464521 C117.903055,17.8319249 119.651781,16.9544151 121.49641,17.0018277 L121.531725,17.0018277 C125.831993,17.0018277 127.961753,19.9896433 127.961753,25.9267931 C127.953604,28.8321483 127.393998,31.0640769 126.23404,32.6528142 L126.242189,32.6528142 Z" id="Shape" fill="#174579"></path>
            <path d="M107.13077,12 L95.4035546,12 C94.2088768,12.0277858 93.243448,13.2614736 93.243448,14.7785762 C93.243448,16.2956788 94.2121057,17.5265881 95.4035546,17.5571524 L99.5332651,17.5571524 L99.5332651,38.9883108 C99.5316982,38.996592 99.5316982,39.0050368 99.5332651,39.013318 C99.5316865,39.0206653 99.5316865,39.0281993 99.5332651,39.0355466 L99.5332651,39.0549966 C99.5784691,40.1330842 101.260705,41 103.327174,41 C105.393644,41 107.075879,40.1330842 107.117855,39.0549966 L107.13077,12 Z" id="Shape" fill="#174579"></path>
            <path d="M81.5408271,12.0345127 L57.4454432,12.0345127 C52.7227807,12.1926961 48.3378402,14.7638954 48.3378402,20.2284128 C48.3378402,24.7783426 50.8108377,26.9555214 54.0328157,28.65815 C56.2443508,29.8430874 58.3442198,30.1997191 59.1313302,31.9397365 C59.9184407,33.6797539 59.3546626,36.294094 56.4704068,36.4522774 L48.3378402,36.4522774 C46.0282567,36.4522774 44.9388305,35.8166678 44.9388305,33.0498963 L44.9388305,26.4809712 C44.9388305,20.8985352 44.001924,17.1021336 42.0518511,15.0831383 C40.2243386,13.1906896 37.4680904,12.1265467 33.6714401,12 L28.9596718,12 C27.9465054,12 27.1267122,13.2855996 27.1239887,14.8760618 C27.1212651,16.466524 27.9410583,17.7521236 28.9596718,17.7521236 L32.4839655,17.7521236 C32.8434762,17.7521236 33.2356696,17.7521236 33.6087981,17.7866363 C36.9070359,18.1030031 38.554793,19.7653669 38.554793,22.8542572 C37.689233,22.5931239 36.7963604,22.4462841 35.8965931,22.4170958 C35.1325436,22.4161596 34.3689484,22.4564771 33.6087981,22.5378904 C30.3405195,22.8254966 27.7640266,23.7228279 25.8139537,25.2672731 C23.4526224,27.1280851 22.2542536,29.7798141 22.2542536,33.1016654 C22.2534332,33.6321255 22.2907626,34.1618855 22.3659198,34.6863755 C20.8271053,36.340111 19.3073557,36.4292689 14.8025784,36.4292689 C9.35544744,36.4292689 6.63188196,33.3806434 6.63188196,27.3265333 C6.63188196,24.3181727 7.34273255,21.9828105 8.72902738,20.2801819 C10.024458,18.6640102 11.9398973,17.7493118 13.9446553,17.7895124 L21.5706386,17.7895124 L21.6550692,17.7895124 C22.5592929,17.726239 23.2892085,16.4607719 23.2892085,14.9134506 C23.2892085,13.3661294 22.56474,12.1035382 21.6550692,12.0373888 L14.3422958,12.0373888 C10.3059718,12 6.67273544,13.5415691 4.01181196,16.3514815 C1.35088848,19.1613939 -2.43614652e-14,22.7593472 -2.43614652e-14,27.312153 C-2.43614652e-14,31.9397365 1.23649873,35.5434419 3.67408984,38.154906 C6.11168095,40.7663701 9.39357736,41.9513076 13.6423395,42.0318373 C19.361827,42.1411277 21.5107202,41.7988763 24.6891211,39.6188215 C24.727251,39.6590863 24.765381,39.6993512 24.8035109,39.6993512 C26.4376502,41.2811852 28.7744693,42.0318373 31.6968551,42.0318373 C32.3339124,42.0292016 32.9703583,41.9898369 33.603351,41.9139188 C34.7622399,41.8236363 35.9007295,41.5432118 36.9778486,41.0827369 C38.4376797,40.4500033 39.8239745,39.4980269 40.4231589,38.4712728 C41.2102694,39.9093037 42.7109539,41.9944485 46.2325241,41.9944485 L56.895283,41.9944485 C58.8831991,41.8140856 60.8099508,41.1780787 62.5412342,40.1307605 C64.5648434,38.8250284 66.0628044,36.0553809 66.0628044,33.3633871 C66.0628044,28.8134573 63.551677,27.0360511 60.3433169,25.3305465 C58.1345053,24.1427329 56.3723584,23.7055715 55.2475259,22.0432078 C54.1226933,20.3808441 54.8716738,17.8499097 57.7586532,17.76938 L68.9634016,17.8096448 L68.9062068,52.8372015 C68.9062068,54.0307672 70.3578672,55 72.1445261,55 C73.9311851,55 75.3828455,54.0307672 75.3828455,52.8372015 L75.3828455,40.757742 C77.0861093,41.631123 78.9614483,42.0648465 80.8544885,42.0232091 L81.5272092,42.0232091 C85.3129652,41.9052906 88.3851471,40.6398234 90.6348122,38.2268076 C93.0333655,35.6536909 94.2335501,32.0106793 94.2353996,27.2977727 C94.2489836,17.1797873 90.1500175,12.0345127 81.5408271,12.0345127 Z M38.5929229,30.5966156 C38.5929229,34.3958933 36.9451658,36.294094 33.6087981,36.5328072 C33.3733478,36.5673805 33.1355491,36.5808502 32.8979475,36.573072 C30.0872279,36.573072 28.6246732,35.3852585 28.6246732,32.8111832 C28.6246732,29.963882 30.3105603,28.2612534 33.6087981,27.7464384 C34.4530181,27.6168569 35.304964,27.5514979 36.1580554,27.5508662 C36.9785025,27.5865348 37.793838,27.7049928 38.5929229,27.9046218 L38.5929229,30.5966156 Z M85.7106058,34.1197913 C84.7736993,35.2270751 83.4228108,35.9403384 81.5489977,36.2164404 C80.8526317,36.2977011 80.1524525,36.3370709 79.4518523,36.3343589 C77.9815689,36.365263 76.5481944,35.8467985 75.404634,34.8704434 L75.404634,17.8527858 L79.4518523,17.8125209 C80.1517903,17.7960835 80.852039,17.8229729 81.5489977,17.8930506 C83.4990706,18.1806568 84.7736993,18.842151 85.7487357,19.9062939 C87.0233644,21.2925557 87.6552316,23.6681827 87.6552316,27.1108287 C87.652508,30.3205137 87.0151937,32.6529998 85.7024351,34.1197913 L85.7106058,34.1197913 Z" id="Shape" fill="#174579"></path>
            <path d="M151.577288,14.1839929 C151.484299,14.4520274 151.288157,14.6714727 151.032731,14.7932473 C150.777306,14.9150219 150.48391,14.9289653 150.218163,14.8319588 L142.494938,12.1036814 C142.227889,12.0103491 142.00925,11.8134835 141.887923,11.5571159 C141.766596,11.3007483 141.752704,11.0062694 141.849354,10.7395427 L144.567603,3.00146574 C144.660502,2.73347716 144.856831,2.51421835 145.112438,2.39299866 C145.368045,2.27177897 145.661471,2.25877463 145.926728,2.3569102 L153.649953,5.08518765 C153.916956,5.17842946 154.135409,5.37548295 154.256183,5.63203256 C154.376957,5.88858217 154.389914,6.1830909 154.292139,6.44932637 L151.577288,14.1839929 Z" id="Shape" fill="#B2D1E2"></path>
            <path d="M164.146671,22.8503871 C164.052943,23.1178266 163.856771,23.3366484 163.60169,23.4582907 C163.346609,23.5799331 163.05372,23.5943341 162.78802,23.4982979 L155.064087,20.7702525 C154.797176,20.6770186 154.578799,20.4799819 154.458067,20.2234541 C154.337335,19.9669263 154.324383,19.6724427 154.422124,19.4062298 L157.139427,11.6688111 C157.232384,11.4007994 157.428457,11.1813728 157.683794,11.0596086 C157.93913,10.9378443 158.232424,10.9239021 158.498078,11.0209003 L166.218615,13.7489457 C166.486146,13.8414856 166.705319,14.0382344 166.826727,14.2948408 C166.948135,14.5514472 166.961559,14.8463127 166.863974,15.1129684 L164.146671,22.8503871 Z" id="Shape" fill="#73ABCA"></path>
            <path d="M151.572845,31.5148929 C151.479889,31.7828631 151.283817,32.0022557 151.028482,32.1240011 C150.773148,32.2457464 150.479855,32.2596865 150.214204,32.1627033 L142.493721,29.4350805 C142.227337,29.340996 142.009378,29.1440788 141.888216,28.8880293 C141.767053,28.6319798 141.752709,28.3379777 141.848366,28.0712691 L144.56565,20.3350488 C144.657825,20.0665017 144.853797,19.8464966 145.109392,19.7246275 C145.364986,19.6027583 145.658688,19.5892827 145.924292,19.6872384 L153.648171,22.4148612 C153.915125,22.5081711 154.133686,22.7049895 154.25497,22.9612955 C154.376254,23.2176016 154.390141,23.5120099 154.293526,23.7786727 L151.572845,31.5148929 Z" id="Shape" fill="#73ABCA"></path>
            <path d="M164.147175,40.9699543 C164.052672,41.2368339 163.85636,41.4550593 163.601469,41.5765753 C163.346579,41.6980914 163.054012,41.7129331 162.788194,41.6178321 L155.065496,38.8893147 C154.799035,38.7951994 154.581008,38.5982329 154.459801,38.3421269 C154.338594,38.0860209 154.324233,37.7919596 154.419904,37.5252021 L157.137573,29.7841533 C157.23123,29.5167571 157.427631,29.2981265 157.682952,29.1770461 C157.938273,29.0559656 158.231266,29.0425115 158.496554,29.1396857 L166.219253,31.8682031 C166.486284,31.9615437 166.704913,32.1584112 166.826242,32.4147739 C166.94757,32.6711366 166.961474,32.9656042 166.864845,33.2323157 L164.147175,40.9699543 Z" id="Shape" fill="#3384B2" transform="translate(160.642857, 35.377604) rotate(1.000000) translate(-160.642857, -35.377604) "></path>
            <path d="M160.2181,51.9965535 C160.125143,52.2645652 159.929069,52.4839918 159.673733,52.605756 C159.418397,52.7275203 159.125102,52.7414625 158.859449,52.6444643 L151.135515,49.9164189 C150.868605,49.823185 150.650228,49.6261483 150.529496,49.3696205 C150.408764,49.1130927 150.395812,48.818609 150.493553,48.5523962 L153.210855,40.8149775 C153.304584,40.547538 153.500756,40.3287162 153.755837,40.2070738 C154.010917,40.0854315 154.303807,40.0710305 154.569507,40.1670667 L162.290043,42.8951121 C162.557574,42.9876519 162.776747,43.1844008 162.898155,43.4410072 C163.019563,43.6976135 163.032988,43.9924791 162.935403,44.2591348 L160.2181,51.9965535 Z" id="Shape" fill="#00659F"></path>
            <path d="M149.218561,48.0577732 C149.125587,48.3257767 148.929477,48.5451965 148.674093,48.6669571 C148.418709,48.7887176 148.12536,48.8026594 147.859657,48.7056641 L140.137681,45.9777022 C139.870675,45.8843807 139.652071,45.6875379 139.530764,45.4312 C139.409457,45.174862 139.395567,44.8804171 139.492201,44.6137212 L142.21001,36.8731292 C142.304439,36.6063211 142.500932,36.3883007 142.755984,36.2673386 C143.011036,36.1463764 143.303605,36.132452 143.568915,36.2286482 L151.290891,38.9566102 C151.557897,39.0499317 151.7765,39.2467745 151.897808,39.5031124 C152.019115,39.7594504 152.033005,40.0538953 151.936371,40.3205911 L149.218561,48.0577732 Z" id="Shape" fill="#3384B2"></path>
            <path d="M170.842583,50.7717391 L170.842583,51.1389454 L169.672814,51.1389454 L169.672814,54 L169.182673,54 L169.182673,51.1389454 L168.007851,51.1389454 L168.007851,50.7717391 L170.842583,50.7717391 Z M173.139171,52.8330502 C173.162752,52.8690951 173.183385,52.9070169 173.201071,52.9468165 C173.218756,52.9866161 173.23602,53.0267907 173.252864,53.0673412 C173.269707,53.0252888 173.287393,52.9851143 173.30592,52.9468165 C173.324448,52.9085187 173.345502,52.8698461 173.369083,52.8307974 L174.594435,50.8460815 C174.616332,50.8115384 174.63907,50.7905125 174.662651,50.7830031 C174.686231,50.7754938 174.719918,50.7717391 174.763711,50.7717391 L175.125,50.7717391 L175.125,54 L174.695495,54 L174.695495,51.6278027 C174.695495,51.5962634 174.696337,51.5624717 174.698022,51.5264268 C174.699706,51.4903818 174.702232,51.4535865 174.705601,51.4160396 L173.46509,53.4345475 C173.422981,53.5021318 173.36403,53.5359234 173.288235,53.5359234 L173.217493,53.5359234 C173.141698,53.5359234 173.082746,53.5021318 173.040638,53.4345475 L171.772335,51.4092812 C171.777388,51.4483299 171.781178,51.4866271 171.783704,51.524174 C171.786231,51.5617208 171.787494,51.5962634 171.787494,51.6278027 L171.787494,54 L171.357989,54 L171.357989,50.7717391 L171.719279,50.7717391 C171.763072,50.7717391 171.796758,50.7754938 171.820339,50.7830031 C171.843919,50.7905125 171.866658,50.8115384 171.888554,50.8460815 L173.139171,52.8330502 Z" id="TM" fill="#184478"></path>
        </g>
    </g>
</svg>